# xmcd
#
# Track frame offsets: 
#        150
#        15552
#        26937
#        42167
#        55360
#        74270
#        90132
#        108957
#        128087
#        138347
#        158702
#        180062
#        196302
#        209322
#
# Disc length: 2986 seconds
#
# Revision: 6
# Processed by: cddbd v1.5.2PL0 Copyright (c) Steve Scherf et al.
# Submitted via: ExactAudioCopy v0.99pb4
#
DISCID=af0ba80e
DTITLE=Otis Spann - Good Morning Mr. Blues [Storyville, Analogue Produ
DTITLE=ctions]
DYEAR=1963
DGENRE=Blues
TTITLE0=Good Morning Mr. Blues
TTITLE1=Love, Love, Love
TTITLE2=River Side Blues
TTITLE3=Must Have Been the Devil
TTITLE4=Jelly Roll Baker
TTITLE5=Trouble in Mind
TTITLE6=Worried Life Blues
TTITLE7=T.B. Blues
TTITLE8=Spann's Boogie
TTITLE9=Don't You Know
TTITLE10=Goin' Down Slow
TTITLE11=The  Skys are Blue
TTITLE12=Keep Your Hands Out of My Pocket
TTITLE13=Boot and Shoes
EXTD=YEAR: 1963
EXTT0=
EXTT1=
EXTT2=
EXTT3=
EXTT4=
EXTT5=
EXTT6=
EXTT7=
EXTT8=
EXTT9=
EXTT10=
EXTT11=
EXTT12=
EXTT13=
PLAYORDER=
